<?xml version="1.0" encoding="UTF-8"?>
<svg width="200" height="200" version="1.1" viewBox="0 0 52.91666545 52.91666816" xmlns="http://www.w3.org/2000/svg" xmlns:xlink="http://www.w3.org/1999/xlink">
	<defs>
		<linearGradient id="linearGradient850" x1="34.13796616" x2="65.13858795" y1="166.3052826" y2="136.1408844" gradientTransform="matrix(1.25546884 0 0 1.25546884 -34.83878474 -153.4425369)" gradientUnits="userSpaceOnUse">
			<stop stop-color="#f82979" offset="0"/>
			<stop stop-color="#f0882b" offset="1"/>
		</linearGradient>
	</defs>
	<path d="m29.68055253 24.05303094v-8.418560606l5.291666667-5.315719697c1.924242424-1.900189394 2.285037879-4.930871212 0.9380681818-7.288068182-1.082386364-1.900189394-3.054734848-3.030681818-5.147348485-3.030681818-0.5051136364 0-1.082386364 0.07215909091-1.539393939 0.2164772727-2.597727273 0.6975378788-4.353598485 3.102840909-4.353598485 5.796780303v7.793181818l-7.552651515 7.624810606c-3.99280303 4.064962121-5.195454545 10.15037879-3.006628788 15.46609848 1.852083333 4.570075758 5.892992424 7.721022727 10.5592803 8.538825758v1.467234848c0 0.6253787879-0.553219697 1.202651515-1.202651515 1.202651515h-3.607954545v4.810606061h3.607954545c3.247159091 0 6.013257576-2.669886364 6.013257576-6.013257576v-1.202651515c4.882765152 0 10.00606061-4.618181818 10.00606061-11.42518939 0-5.53219697-4.618181818-10.22253788-10.00606061-10.22253788m0-18.03977273c0-0.553219697 0.2645833333-0.9861742424 0.7696969697-1.130492424 0.5291666667-0.1443181818 1.082386364 0.07215909091 1.346969697 0.553219697 0.2886363636 0.4810606061 0.1924242424 1.082386364-0.1924242424 1.467234848l-1.924242424 2.068560606v-2.958522727m-4.810606061 19.24242424c-2.333143939 1.539393939-4.089015152 4.185227273-4.714393939 6.638636364l4.714393939 1.250757576v7.336174242c-2.717992424-0.7215909091-5.051136364-2.693939394-6.181628788-5.435984848-1.419128788-3.511742424-0.6494318182-7.504545455 1.996401515-10.19848485l4.185227273-4.401704545v4.810606061m4.810606061 15.6344697v-12.17083333c2.814204545 0 5.243560606 2.645833333 5.243560606 5.55625 0 4.209280303-3.054734848 6.614583333-5.243560606 6.614583333z" fill="url(#linearGradient850)" stroke-width="2.4053"/>
</svg>
