<?xml version="1.0" encoding="UTF-8"?>
<svg width="675" height="160" version="1.1" viewBox="0 0 178.5937459 42.33333453" xmlns="http://www.w3.org/2000/svg" xmlns:xlink="http://www.w3.org/1999/xlink">
	<defs>
		<linearGradient id="linearGradient953" x1="1.336302996" x2="253.7472229" y1="148.6085663" y2="148.6085663" gradientTransform="translate(-38.30561549 -127.534084)" gradientUnits="userSpaceOnUse">
			<stop stop-color="#f82979" offset="0"/>
			<stop stop-color="#f0882b" offset="1"/>
		</linearGradient>
	</defs>
	<path d="m13.96486912 0c-0.4023306833 0-0.8617514986 0.05764766006-1.225764974 0.1725992839-2.069129228 0.555599515-3.468005371 2.471525581-3.468005371 4.617289225v6.207373047l-6.015653483 6.073014323c-3.180328258 3.23780407-4.138118833 8.085093218-2.394685872 12.31914469 1.475212505 3.640134753 4.693570186 6.149742719 8.410339355 6.801135254v1.168920898c0 0.4981237031-0.4402819833 0.9575642904-0.9575642904 0.9575642904h-2.874243164v3.831807454h2.874243164c2.586411535 0 4.789371745-2.126325794 4.789371745-4.789371745v-0.9580810547c3.889196605 0 7.970056152-3.678334804 7.970056152-9.100219727 0-4.406478912-3.678528864-8.142655436-7.970056152-8.142655436v-6.705533854l4.214729818-4.233850098c1.532688317-1.513529713 1.820123033-3.927787215 0.7472412109-5.805330404-0.8621371784-1.513529713-2.433209593-2.413806152-4.100008138-2.413806152zm0.06717936198 3.855578613c0.3116266676 0.01796119122 0.5990012504 0.1870105889 0.7570597331 0.4743896484 0.2299032476 0.3831720793 0.1530586595 0.8618664707-0.1534790039 1.168404134l-1.532722982 1.647961426v-2.356445312c0-0.4406478912 0.211068568-0.7857685911 0.6133992513-0.9007202148 0.1053723218-0.02873790595 0.2118674454-0.03957674473 0.3157430013-0.03358968099zm72.67980143 6.710701497c-2.016720871 0-3.547192741 0.4776986338-4.590934245 1.432987467-1.043741503 0.9375982997-1.565279134 2.317673993-1.565279134 4.139798991v0.4242635091h-1.645377604v3.768245443h1.645377604v11.0386027h4.537190755v-11.0386027h2.441711426v-3.768245443h-2.441711426v-0.132808431c0-0.7783834941 0.1769062805-1.317766782 0.5307169596-1.618505859 0.3538106791-0.3007390772 0.9645765966-0.42462515 1.83141276-0.3715535482v-3.847827148c-0.1592148056-0.01769053395-0.4069869512-0.02635498047-0.7431070964-0.02635498047zm-30.78158366 1.167370605v19.63652751h4.53770752v-19.63652751zm82.73861898 0v19.63652751h4.53770752v-2.069641113c0.4422633489 0.6899308243 1.052512502 1.24715977 1.830895996 1.671732585 0.7783834941 0.406882281 1.689425001 0.6102986654 2.733166504 0.6102986654 1.220646843 0 2.326440287-0.3094567998 3.317110189-0.9286254883 0.9906699015-0.6368592224 1.768644124-1.530055072 2.334741211-2.679939779 0.5837876205-1.167575241 0.8759155273-2.512476384 0.8759155273-4.033862305 0-1.52138592-0.2921279068-2.856589088-0.8759155273-4.006473796-0.5660970866-1.149884707-1.344071309-2.03441611-2.334741211-2.653584798-0.9906699015-0.6191686885-2.096463346-0.9291422526-3.317110189-0.9291422526-1.026050969 0-1.937092476 0.2125975952-2.733166504 0.6371704102-0.796074028 0.4245728149-1.406323181 0.9818017604-1.830895996 1.671732585v-6.92619222zm18.01750488 0v19.63652751h4.53770752v-19.63652751zm-112.3786702 0.7963338216c-1.804434464 0-3.423101092 0.4068327688-4.856034342 1.220597331-1.415242716 0.796074028-2.521036161 1.919196365-3.317110189 3.36982015-0.796074028 1.43293325-1.19424235 3.069445536-1.19424235 4.909261068 0 1.839815531 0.3981683222 3.476327817 1.19424235 4.909261068s1.901867472 2.556055588 3.317110189 3.36982015c1.43293325 0.796074028 3.051599879 1.19424235 4.856034342 1.19424235 2.211316744 0 4.104265622-0.5750746028 5.678723145-1.72495931 1.574457522-1.167575241 2.626713994-2.759731766 3.157430013-4.776452637h-4.988326009c-0.3715012131 0.7783834941-0.9022200546 1.371303754-1.592150879 1.778186035-0.6722402903 0.406882281-1.442066831 0.6102986654-2.308902995 0.6102986654-1.397552183 0-2.529855731-0.4863630803-3.396691895-1.459342448-0.8668361638-0.9729793676-1.300179036-2.27352475-1.300179036-3.901053874s0.4333428726-2.927557742 1.300179036-3.900537109c0.8668361638-0.9729793676 1.999139712-1.459342448 3.396691895-1.459342448 0.8668361638 0 1.636662704 0.2034163844 2.308902995 0.6102986654 0.6899308243 0.406882281 1.220649666 0.9992857768 1.592150879 1.777669271h4.988326009c-0.5307160187-2.016720871-1.582972491-3.608877396-3.157430013-4.776452637-1.574457522-1.167575241-3.4674064-1.75131429-5.678723145-1.75131429zm49.96645915 0.2123901367v3.635437012h4.936132812v14.99236654h4.537190755v-14.99236654h4.935616048v-3.635437012zm-85.00308024 3.542419434v3.831807454c-1.858384585 1.226150654-3.256685867 3.333354948-3.75480957 5.287532552l3.75480957 0.9963216146v5.843570964c-2.164922248-0.574758119-4.023276082-2.14588741-4.923730469-4.329968262-1.130357634-2.797156179-0.5173626146-5.977254748 1.590083822-8.123018392zm61.0681071 0.06614583333c-1.468314318 0-2.768342936 0.3099735641-3.900537109 0.9291422526-1.132194173 0.6191686885-2.016725576 1.503700091-2.653584798 2.653584798-0.6191686885 1.149884707-0.9291422526 2.494269086-0.9291422526 4.03334554 0 1.539076454 0.3186380107 2.883460833 0.9554972331 4.03334554 0.6368592224 1.149884707 1.521390625 2.03441611 2.653584798 2.653584798 1.132194173 0.6191686885 2.423558345 0.9286254883 3.874182129 0.9286254883 1.202956309 0 2.290904096-0.2212620417 3.263883464-0.6635253906 0.9729793676-0.4422633489 1.777980459-1.052512502 2.414839681-1.830895996 0.6545497564-0.7783834941 1.105738286-1.653733686 1.353405762-2.626713053h-4.829679362c-0.4422633489 0.9552888336-1.229418783 1.432987467-2.361612956 1.432987467-0.7606929601 0-1.406633428-0.2391076991-1.937349447-0.7167521159-0.5130254847-0.4953349508-0.8046366272-1.202960073-0.875398763-2.122867839h10.26914063c0.05307160187-0.4599538829 0.07958170573-0.901961202 0.07958170573-1.326534017 0-1.486004852-0.3181212463-2.786550234-0.9549804688-3.901053874-0.6191686885-1.114503639-1.486371198-1.972524938-2.600874837-2.574003092-1.114503639-0.6014781545-2.388022153-0.9022705078-3.820955404-0.9022705078zm58.56438395 0c-1.468314318 0-2.768342936 0.3099735641-3.900537109 0.9291422526-1.132194173 0.6191686885-2.016725576 1.503700091-2.653584798 2.653584798-0.6191686885 1.149884707-0.9291422526 2.494269086-0.9291422526 4.03334554 0 1.539076454 0.3186380107 2.883460833 0.9554972331 4.03334554 0.6368592224 1.149884707 1.521390625 2.03441611 2.653584798 2.653584798 1.132194173 0.6191686885 2.423558345 0.9286254883 3.874182129 0.9286254883 1.202956309 0 2.290904096-0.2212620417 3.263883464-0.6635253906s1.777980459-1.052512502 2.414839681-1.830895996c0.6545497564-0.7783834941 1.105738286-1.653733686 1.353405762-2.626713053h-4.829679362c-0.4422633489 0.9552888336-1.229418783 1.432987467-2.361612956 1.432987467-0.7606929601 0-1.406633428-0.2391076991-1.937349447-0.7167521159-0.5130254847-0.4953349508-0.8046366272-1.202960073-0.875398763-2.122867839h10.26914062c0.05307160187-0.4599538829 0.07958170573-0.901961202 0.07958170573-1.326534017 0-1.486004852-0.3181212463-2.786550234-0.9549804688-3.901053874-0.6191686885-1.114503639-1.486371198-1.972524938-2.600874837-2.574003092-1.114503639-0.6014781545-2.388022153-0.9022705078-3.820955404-0.9022705078zm42.19173991 0c-1.468314318 0-2.768342936 0.3099735641-3.900537109 0.9291422526-1.132194173 0.6191686885-2.016725576 1.503700091-2.653584798 2.653584798-0.6191686885 1.149884707-0.9286254883 2.494269086-0.9286254883 4.03334554 0 1.539076454 0.3181212463 2.883460833 0.9549804688 4.03334554 0.6368592224 1.149884707 1.521390625 2.03441611 2.653584798 2.653584798 1.132194173 0.6191686885 2.423558345 0.9286254883 3.874182129 0.9286254883 1.202956309 0 2.290904096-0.2212620417 3.263883464-0.6635253906s1.777980459-1.052512502 2.414839681-1.830895996c0.6545497564-0.7783834941 1.105738286-1.653733686 1.353405762-2.626713053h-4.829679362c-0.4422633489 0.9552888336-1.229418783 1.432987467-2.361612956 1.432987467-0.7606929601 0-1.406116664-0.2391076991-1.936832682-0.7167521159-0.5130254847-0.4953349508-0.8051533915-1.202960073-0.8759155273-2.122867839h10.26914062c0.05307160187-0.4599538829 0.07958170573-0.901961202 0.07958170573-1.326534017 1e-12 -1.486004852-0.3181212463-2.786550234-0.9549804688-3.901053874-0.6191686885-1.114503639-1.485854434-1.972524938-2.600358073-2.574003092-1.114503639-0.6014781545-2.388538918-0.9022705078-3.821472168-0.9022705078zm-50.94831136 0.05322672526c-0.9729793676 0-1.85751077 0.2385909348-2.653584798 0.7162353516-0.796074028 0.4599538829-1.459860153 1.097229904-1.990576172 1.910994466v-2.468066406h-4.537190755v14.80684814h4.537190755v-6.87244873c0-1.220646843 0.2834634603-2.070003695 0.8495605469-2.547648112 0.5660970866-0.4953349508 1.414937174-0.7431070964 2.547131348-0.7431070964h1.247469076zm-49.86103923 3.582210286c0.796074028 0 1.459860153 0.2299264882 1.990576172 0.6898803711s0.7958170573 1.079384247 0.7958170573 1.857767741h-5.678723145c0.1238337377-0.813764562 0.4424717484-1.441859372 0.9554972331-1.884122721 0.5307160187-0.4422633489 1.176139722-0.6635253906 1.936832682-0.6635253906zm58.56438395 0c0.796074028 0 1.459860153 0.2299264882 1.990576172 0.6898803711 0.5307160187 0.4599538829 0.7958170573 1.079384247 0.7958170573 1.857767741h-5.678723145c0.1238337377-0.813764562 0.4424717484-1.441859372 0.9554972331-1.884122721 0.5307160187-0.4422633489 1.176139722-0.6635253906 1.936832682-0.6635253906zm42.19225667 0c0.796074028 0 1.459343389 0.2299264882 1.990059408 0.6898803711s0.7958170573 1.079384247 0.7958170573 1.857767741h-5.678723145c0.1238337377-0.813764562 0.4424717484-1.441859372 0.9554972331-1.884122721 0.5307160187-0.4422633489 1.176656487-0.6635253906 1.937349447-0.6635253906zm-24.62537028 0.3183268229c0.9199077657 0 1.689217542 0.3273024572 2.30838623 0.9818522135 0.6368592224 0.6368592224 0.9554972331 1.521390625 0.9554972331 2.653584798 0 1.132194173-0.3186380107 2.034571233-0.9554972331 2.706811523-0.6368592224 0.6545497564-1.406168999 0.9818522135-2.30838623 0.9818522135s-1.671527008-0.3273024572-2.30838623-0.9818522135c-0.6191686885-0.6545497564-0.9291422526-1.547745605-0.9291422526-2.679939779 0-1.132194173 0.3099735641-2.025906787 0.9291422526-2.680456543 0.6368592224-0.6545497564 1.406168999-0.9818522135 2.30838623-0.9818522135zm-133.3143433 2.570902507c2.241556664 0 4.176489258 2.107378582 4.176489258 4.425569661 0 3.352755694-2.433056297 5.268412272-4.176489258 5.268412272z" fill="url(#linearGradient953)" stroke-width="2.11667"/>
</svg>
