<?xml version="1.0" encoding="UTF-8" standalone="no"?>
<svg
   xmlns:dc="http://purl.org/dc/elements/1.1/"
   xmlns:cc="http://creativecommons.org/ns#"
   xmlns:rdf="http://www.w3.org/1999/02/22-rdf-syntax-ns#"
   xmlns:svg="http://www.w3.org/2000/svg"
   xmlns="http://www.w3.org/2000/svg"
   xmlns:xlink="http://www.w3.org/1999/xlink"
   xmlns:sodipodi="http://sodipodi.sourceforge.net/DTD/sodipodi-0.dtd"
   xmlns:inkscape="http://www.inkscape.org/namespaces/inkscape"
   width="675"
   height="160"
   viewBox="0 0 178.593745890686 42.3333345295471"
   version="1.1"
   id="svg8"
   inkscape:version="1.0.1 (3bc2e81, 2020-09-07)"
   sodipodi:docname="logo2.svg">
  <defs
     id="defs2">
    <linearGradient
       inkscape:collect="always"
       xlink:href="#linearGradient848"
       id="linearGradient953"
       gradientUnits="userSpaceOnUse"
       gradientTransform="translate(-38.3056154913531,-127.53408397208)"
       x1="1.33630299568176"
       y1="148.60856628418"
       x2="253.747222900391"
       y2="148.60856628418" />
    <linearGradient
       inkscape:collect="always"
       id="linearGradient848">
      <stop
         style="stop-color:#f82979;stop-opacity:1"
         offset="0"
         id="stop844" />
      <stop
         style="stop-color:#f0882b;stop-opacity:1"
         offset="1"
         id="stop846" />
    </linearGradient>
  </defs>
  <sodipodi:namedview
     id="base"
     pagecolor="#ffffff"
     bordercolor="#666666"
     borderopacity="1.0"
     inkscape:pageopacity="0.0"
     inkscape:pageshadow="2"
     inkscape:zoom="0.989949492877667"
     inkscape:cx="265.39229046587"
     inkscape:cy="207.565608441061"
     inkscape:document-units="mm"
     inkscape:current-layer="layer1"
     inkscape:document-rotation="0"
     showgrid="false"
     units="px"
     inkscape:window-width="1674"
     inkscape:window-height="888"
     inkscape:window-x="26"
     inkscape:window-y="20"
     inkscape:window-maximized="1" />
  <metadata
     id="metadata5">
    <rdf:RDF>
      <cc:Work
         rdf:about="">
        <dc:format>image/svg+xml</dc:format>
        <dc:type
           rdf:resource="http://purl.org/dc/dcmitype/StillImage" />
        <dc:title></dc:title>
      </cc:Work>
    </rdf:RDF>
  </metadata>
  <g
     inkscape:label="Capa 1"
     inkscape:groupmode="layer"
     id="layer1">
    <path
       id="rect856-5"
       style="fill:url(#linearGradient953);fill-opacity:1;stroke-width:2.11667"
       d="M 13.9648691153694,0 C 13.562538432095,0 13.1031176167545,0.057647660060013 12.739104141411,0.172599283853998 10.6699749131423,0.728198798874985 9.27109877031732,2.64412486498699 9.27109877031732,4.789888509115 v 6.207373046875 l -6.0156534830729,6.073014322916 c -3.1803282582646081,3.237804070157 -4.138118833251806,8.085093217651 -2.394685872395905,12.319144694011 1.475212505340005,3.64013475344 4.693570186170905,6.149742719077 8.410339355468805,6.801135253906 v 1.168920898437 c 0,0.498123703126 -0.4402819832996,0.957564290365 -0.95756429036461,0.957564290365 H 5.43929131589022 v 3.831807454427 h 2.87424316406249 c 2.58641153533589,0 4.78937174479169,-2.126325793597 4.78937174479169,-4.789371744792 v -0.958081054687 c 3.8891966049867,0 7.9700561523437,-3.678334804341 7.9700561523437,-9.100219726563 0,-4.406478912055 -3.6785288640823,-8.142655436197 -7.9700561523437,-8.142655436197 V 12.452986653646 L 17.3176360424527,8.21913655599005 C 18.8503243596884,6.70560684272004 19.137759075455,4.29134934096004 18.0648772533902,2.41380615234405 17.2027400749449,0.900276439075043 15.6316676603637,5.6843418860808e-14 13.9648691153694,0 Z m 0.067179361979,3.85557861328101 c 0.3116266676252,0.01796119122 0.5990012503579,0.187010588942 0.7570597330729,0.47438964843801 0.2299032475856,0.38317207933301 0.153058659546,0.861866470661 -0.1534790039062,1.16840413411401 l -1.5327229817708,1.647961425782 v -2.3564453125 c 0,-0.44064789122899 0.2110685680275,-0.785768591052 0.6133992513021,-0.900720214844 0.1053723218093,-0.02873790595 0.211867445427,-0.03957674473 0.315743001302,-0.03358968099 z M 86.7118499096401,10.566280110677 c -2.016720870972,0 -3.547192741394,0.477698633829 -4.590934244792,1.432987467448 -1.0437415033974,0.937598299663 -1.5652791341143,2.317673993429 -1.5652791341143,4.139798990885 v 0.424263509115 h -1.6453776041667 v 3.768245442708 h 1.6453776041667 v 11.038602701823 h 4.5371907552083 V 20.331575520833 h 2.441711425781 v -3.768245442708 h -2.441711425781 v -0.13280843099 c 0,-0.778383494059 0.176906280518,-1.317766782125 0.530716959635,-1.618505859375 0.353810679118,-0.300739077249 0.964576596578,-0.424625150044 1.831412760417,-0.371553548177 v -3.847827148437 c -0.159214805603,-0.01769053395 -0.406986951192,-0.02635498047 -0.743107096354,-0.026354980469 z M 55.930266250786,11.733650716146 v 19.63652750651 h 4.5377075195312 v -19.63652750651 z m 82.738618977865,0 v 19.63652750651 h 4.537707519531 v -2.069641113281 c 0.442263348897,0.689930824281 1.052512502035,1.247159769693 1.830895996094,1.671732584635 0.778383494059,0.406882280987 1.689425000508,0.610298665365 2.733166503906,0.610298665365 1.220646842957,0 2.326440287272,-0.309456799826 3.317110188802,-0.928625488281 0.990669901529,-0.636859222414 1.768644124349,-1.530055071514 2.334741210937,-2.679939778646 0.583787620545,-1.16757524109 0.875915527344,-2.512476384481 0.875915527344,-4.033862304688 0,-1.521385920206 -0.292127906799,-2.856589088441 -0.875915527344,-4.006473795572 -0.566097086588,-1.149884707132 -1.344071309408,-2.03441610972 -2.334741210937,-2.653584798178 -0.99066990153,-0.619168688455 -2.096463345846,-0.929142252604 -3.317110188802,-0.929142252604 -1.026050969442,0 -1.937092475891,0.212597595214 -2.733166503906,0.637170410157 -0.796074028015,0.424572814942 -1.406323181153,0.981801760354 -1.830895996094,1.671732584635 v -6.926192220052 z m 18.017504882812,0 v 19.63652750651 h 4.537707519531 V 11.733650716146 Z M 44.3077198640672,12.52998453776 c -1.804434463501,0 -3.4231010920207,0.406832768759 -4.8560343424479,1.22059733073 -1.4152427164715,0.796074028014 -2.521036160787,1.919196365355 -3.3171101888021,3.369820149739 -0.7960740280151,1.432933250428 -1.1942423502604,3.069445536296 -1.1942423502604,4.909261067709 0,1.839815531412 0.3981683222453,3.47632781728 1.1942423502604,4.909261067708 0.7960740280151,1.432933250428 1.9018674723306,2.556055587769 3.3171101888021,3.369820149739 1.4329332504272,0.796074028015 3.0515998789469,1.194242350261 4.8560343424479,1.194242350261 2.2113167444866,0 4.1042656224568,-0.575074602764 5.6787231445313,-1.724959309896 1.5744575220744,-1.16757524109 2.626713994344,-2.759731765747 3.1574300130208,-4.776452636719 h -4.9883260091146 c -0.3715012130738,0.778383494059 -0.9022200546265,1.37130375417 -1.5921508789062,1.778186035157 -0.6722402903238,0.406882280983 -1.442066830953,0.610298665364 -2.3089029947917,0.610298665364 -1.3975521825155,0 -2.5298557306925,-0.486363080342 -3.3966918945313,-1.459342447917 -0.8668361638387,-0.972979367574 -1.3001790364583,-2.273524749756 -1.3001790364583,-3.901053873697 0,-1.627529123941 0.4333428726196,-2.927557741801 1.3001790364583,-3.900537109375 0.8668361638388,-0.972979367575 1.9991397120158,-1.459342447917 3.3966918945313,-1.459342447917 0.8668361638387,0 1.6366627044679,0.203416384378 2.3089029947917,0.610298665364 0.6899308242797,0.406882280987 1.2206496658324,0.999285776775 1.5921508789062,1.777669270834 h 4.9883260091146 C 52.6131570029425,17.041030593872 51.5609005306729,15.448874069215 49.9864430085985,14.281298828125 48.411985486524,13.113723587035 46.5190366085538,12.52998453776 44.3077198640672,12.52998453776 Z m 49.9664591471349,0.212390136719 v 3.635437011719 h 4.9361328125 v 14.992366536458 h 4.5371907552089 V 16.377811686198 h 4.935616048177 V 12.742374674479 Z M 9.27109877031732,16.284794108073 V 20.1166015625 c -1.8583845846494,1.226150653787 -3.2566858672106,3.333354947606 -3.7548095703125,5.287532552083 l 3.7548095703125,0.996321614584 v 5.843570963541 c -2.1649222480965,-0.574758118962 -4.0232760823736,-2.145887409657 -4.92373046875,-4.329968261718 -1.1303576339619,-2.797156178958 -0.5173626145856,-5.977254747792 1.5900838216146,-8.123018391927 z m 61.06810709635409,0.06614583333 c -1.4683143183389,0 -2.7683429361978,0.309973564149 -3.900537109375,0.929142252604 -1.132194173177,0.619168688458 -2.016725575765,1.503700091046 -2.6535847981771,2.653584798177 -0.6191686884561,1.149884707132 -0.9291422526042,2.494269086202 -0.9291422526042,4.033345540365 0,1.539076454162 0.3186380106608,2.88346083323 0.9554972330729,4.033345540364 0.6368592224122,1.149884707132 1.5213906250002,2.03441610972 2.6535847981771,2.653584798177 1.132194173177,0.619168688456 2.4235583445231,0.928625488282 3.8741821289063,0.928625488282 1.2029563090006,0 2.2909040959676,-0.221262041727 3.2638834635416,-0.663525390625 0.9729793675741,-0.442263348898 1.7779804585775,-1.052512502035 2.4148396809896,-1.830895996094 0.6545497563681,-0.778383494059 1.1057382863363,-1.653733685811 1.3534057617189,-2.626713053385 h -4.8296793619793 c -0.4422633488972,0.955288833618 -1.2294187825522,1.432987467447 -2.3616129557292,1.432987467447 -0.7606929601032,0 -1.4066334279377,-0.239107699076 -1.9373494466145,-0.716752115885 -0.5130254847209,-0.495334950765 -0.8046366271972,-1.202960072837 -0.8753987630209,-2.122867838542 h 10.2691406250001 c 0.053071601867,-0.459953882853 0.079581705729,-0.901961201984 0.079581705729,-1.326534016927 0,-1.486004852295 -0.3181212463379,-2.786550234477 -0.95498046875,-3.901053873698 -0.6191686884561,-1.11450363922 -1.4863711980183,-1.972524937948 -2.6008748372396,-2.574003092448 -1.1145036392213,-0.601478154499 -2.3880221532186,-0.902270507812 -3.8209554036457,-0.902270507812 z m 58.5643839518226,0 c -1.468314318338,0 -2.768342936197,0.309973564149 -3.900537109375,0.929142252604 -1.132194173176,0.619168688458 -2.016725575764,1.503700091046 -2.653584798177,2.653584798177 -0.619168688456,1.149884707132 -0.929142252604,2.494269086202 -0.929142252604,4.033345540365 0,1.539076454162 0.318638010661,2.88346083323 0.955497233073,4.033345540364 0.636859222412,1.149884707132 1.521390625,2.03441610972 2.653584798177,2.653584798177 1.132194173177,0.619168688456 2.423558344524,0.928625488282 3.874182128906,0.928625488282 1.202956309001,0 2.290904095968,-0.221262041727 3.263883463542,-0.663525390625 0.972979367574,-0.442263348898 1.777980458577,-1.052512502035 2.41483968099,-1.830895996094 0.654549756368,-0.778383494059 1.105738286336,-1.653733685811 1.353405761718,-2.626713053385 h -4.829679361979 c -0.442263348897,0.955288833618 -1.229418782552,1.432987467447 -2.361612955729,1.432987467447 -0.760692960103,0 -1.406633427938,-0.239107699076 -1.937349446615,-0.716752115885 -0.51302548472,-0.495334950765 -0.804636627197,-1.202960072837 -0.87539876302,-2.122867838542 h 10.269140625 c 0.05307160187,-0.459953882853 0.07958170573,-0.901961201984 0.07958170573,-1.326534016927 0,-1.486004852295 -0.318121246338,-2.786550234477 -0.95498046875,-3.901053873698 -0.619168688456,-1.11450363922 -1.486371198019,-1.972524937948 -2.60087483724,-2.574003092448 -1.114503639221,-0.601478154499 -2.388022153219,-0.902270507812 -3.820955403647,-0.902270507812 z m 42.191739908854,0 c -1.468314318339,0 -2.768342936198,0.309973564149 -3.900537109375,0.929142252604 -1.132194173177,0.619168688458 -2.016725575765,1.503700091046 -2.653584798177,2.653584798177 -0.619168688456,1.149884707132 -0.928625488281,2.494269086202 -0.928625488281,4.033345540365 0,1.539076454162 0.318121246338,2.88346083323 0.95498046875,4.033345540364 0.636859222412,1.149884707132 1.521390625,2.03441610972 2.653584798177,2.653584798177 1.132194173177,0.619168688456 2.423558344523,0.928625488282 3.874182128906,0.928625488282 1.202956309001,0 2.290904095968,-0.221262041727 3.263883463542,-0.663525390625 0.972979367574,-0.442263348898 1.777980458578,-1.052512502035 2.41483968099,-1.830895996094 0.654549756368,-0.778383494059 1.105738286336,-1.653733685811 1.353405761718,-2.626713053385 h -4.829679361979 c -0.442263348897,0.955288833618 -1.229418782552,1.432987467447 -2.361612955729,1.432987467447 -0.760692960103,0 -1.406116663615,-0.239107699076 -1.936832682292,-0.716752115885 -0.51302548472,-0.495334950765 -0.805153391519,-1.202960072837 -0.875915527343,-2.122867838542 h 10.269140625 c 0.05307160187,-0.459953882853 0.07958170573,-0.901961201984 0.07958170573,-1.326534016927 10e-13,-1.486004852295 -0.318121246338,-2.786550234477 -0.95498046875,-3.901053873698 -0.619168688457,-1.11450363922 -1.485854433696,-1.972524937948 -2.600358072917,-2.574003092448 -1.114503639221,-0.601478154499 -2.388538917541,-0.902270507812 -3.82147216797,-0.902270507812 z m -50.948311360677,0.05322672526 c -0.972979367574,0 -1.857510770162,0.238590934753 -2.653584798177,0.716235351562 -0.796074028015,0.459953882854 -1.459860153198,1.097229904176 -1.990576171875,1.910994466146 v -2.4680664062499 h -4.537190755208 V 31.370178222652 h 4.537190755208 v -6.872448730468 c 0,-1.2206468429569 0.283463460287,-2.0700036951699 0.849560546875,-2.5476481119789 0.566097086588,-0.495334950766 1.414937174479,-0.743107096355 2.547131347657,-0.743107096355 h 1.24746907552 z m -49.8610392252599,3.582210286458 c 0.7960740280151,0 1.4598601531982,0.22992648824 1.990576171875,0.689880371094 0.5307160186768,0.459953882854 0.7958170572916,1.0793842468261 0.7958170572916,1.8577677408851 h -5.6787231445312 c 0.1238337376913,-0.8137645619701 0.4424717483521,-1.4418593724561 0.9554972330729,-1.8841227213541 0.5307160186768,-0.4422633488979 1.1761397221883,-0.663525390625 1.9368326822917,-0.663525390625 z m 58.5643839518229,0 c 0.796074028014,0 1.459860153198,0.22992648824 1.990576171875,0.689880371094 0.530716018676,0.459953882854 0.795817057292,1.0793842468261 0.795817057292,1.8577677408851 h -5.678723144532 c 0.123833737692,-0.8137645619701 0.442471748352,-1.4418593724561 0.955497233073,-1.8841227213541 0.530716018677,-0.4422633488979 1.176139722188,-0.663525390625 1.936832682292,-0.663525390625 z m 42.192256673177,0 c 0.796074028015,0 1.459343388875,0.22992648824 1.990059407552,0.689880371094 0.530716018677,0.459953882854 0.795817057292,1.0793842468261 0.795817057292,1.8577677408851 h -5.678723144532 c 0.123833737692,-0.8137645619701 0.442471748353,-1.4418593724561 0.955497233073,-1.8841227213541 0.530716018677,-0.4422633488979 1.176656486512,-0.663525390625 1.937349446615,-0.663525390625 z m -24.625370279948,0.318326822917 c 0.919907765707,0 1.689217542013,0.327302457172 2.308386230469,0.981852213542 0.636859222412,0.63685922241 0.955497233073,1.521390624998 0.955497233073,2.653584798177 0,1.132194173176 -0.318638010661,2.034571233112 -0.955497233073,2.706811523437 -0.636859222412,0.654549756369 -1.406168998718,0.981852213542 -2.308386230469,0.981852213542 -0.902217231751,0 -1.671527008057,-0.327302457173 -2.308386230469,-0.981852213542 -0.619168688456,-0.654549756369 -0.929142252604,-1.547745605467 -0.929142252604,-2.679939778646 0,-1.132194173176 0.309973564148,-2.025906786599 0.929142252604,-2.6804565429679 0.636859222412,-0.65454975637 1.406168998718,-0.981852213542 2.308386230469,-0.9818522135421 z m -133.3143432617186,2.57090250651 c 2.2415566639577,0 4.1764892578125,2.107378581643 4.1764892578125,4.425569661458 0,3.352755693952 -2.4330562969558,5.2684122721361 -4.1764892578125,5.2684122721361 z" />
  </g>
</svg>
